<!DOCTYPE svg PUBLIC "-//W3C//DTD SVG 1.1//EN" "http://www.w3.org/Graphics/SVG/1.1/DTD/svg11.dtd">

<!-- Uploaded to: SVG Repo, www.svgrepo.com, Transformed by: SVG Repo Mixer Tools -->
<svg width="19px" height="19px" viewBox="0 0 32 32" xmlns="http://www.w3.org/2000/svg" xmlns:xlink="http://www.w3.org/1999/xlink" fill="#000000">

<g id="SVGRepo_bgCarrier" stroke-width="0"/>

<g id="SVGRepo_tracerCarrier" stroke-linecap="round" stroke-linejoin="round"/>

<g id="SVGRepo_iconCarrier"> <defs> <clipPath id="clip-insights"> <rect width="32" height="32"/> </clipPath> </defs> <g id="insights" clip-path="url(#clip-insights)"> <g id="Group_1718" data-name="Group 1718" transform="translate(-208 -468)"> <g id="Group_1717" data-name="Group 1717"> <g id="Group_1716" data-name="Group 1716"> <path id="Path_3714" data-name="Path 3714" d="M235.9,471.449a3.524,3.524,0,0,0-2.594,5.925l-4.357,7.284a3.53,3.53,0,0,0-.877-.123,3.492,3.492,0,0,0-1.68.444l-3.372-3.372a3.488,3.488,0,0,0,.444-1.679,3.538,3.538,0,1,0-6.131,2.387l-4.358,7.284a3.477,3.477,0,0,0-.877-.123,3.568,3.568,0,1,0,2.594,1.15l4.357-7.284a3.53,3.53,0,0,0,.877.123,3.492,3.492,0,0,0,1.68-.444l3.372,3.372a3.488,3.488,0,0,0-.444,1.679,3.538,3.538,0,1,0,6.131-2.386l4.358-7.285a3.477,3.477,0,0,0,.877.123,3.537,3.537,0,1,0,0-7.075Zm-23.8,23.1a1.537,1.537,0,1,1,1.538-1.537A1.54,1.54,0,0,1,212.1,494.551Zm6.291-14.623a1.537,1.537,0,1,1,1.537,1.537A1.54,1.54,0,0,1,218.39,479.928Zm9.683,9.682a1.537,1.537,0,1,1,0-3.075,1.517,1.517,0,0,1,.777.219l.008.007.024.01a1.534,1.534,0,0,1-.809,2.839Zm7.828-13.086a1.517,1.517,0,0,1-.778-.219l-.007-.006-.014-.005a1.53,1.53,0,1,1,.8.23Z" fill="#c0e239"/> </g> </g> </g> </g> </g>

</svg>